<?xml version="1.0" encoding="utf-8"?>
<!-- Generator: Adobe Illustrator 21.0.0, SVG Export Plug-In . SVG Version: 6.00 Build 0)  -->
<svg version="1.1" id="Calque_1" xmlns="http://www.w3.org/2000/svg" xmlns:xlink="http://www.w3.org/1999/xlink" x="0px" y="0px"
	 viewBox="0 0 125 125" style="enable-background:new 0 0 125 125;" xml:space="preserve">
<style type="text/css">
	.st0{fill:#212121;}
</style>
<g>
	<path class="st0" d="M22.1,124.3c-3.9-0.6-8.4-3.5-13.8-9.1l0,0l0.6-0.6l-0.7,0.6c-4.8-5-7.4-9.2-8-12.9l0,0c0-0.6-0.1-1-0.1-1.4
		l0,0c0.1-8.7,9.8-12.1,11.6-12.5l0,0c2.4-0.6,1.5-0.4,3.1-1.6l0,0c1-0.7,29.4-32.8,33-36.7l0,0c3.9-4.3,7-3.8,9.8-5.4l0,0
		c2.9-1.7,20.8-13.3,30.1-19.6l0,0c0-0.1,0-0.4,0-0.6l0,0c0-2.1,1.7-3.7,3.9-3.7l0,0c0.1,0,0.1,0,0.3,0l0,0c0.3-1.8,1.8-3.1,3.4-3.1
		l0,0c0.7,0,1.4,0.3,1.8,0.9l0,0c1.5,1.6,4.2,4.3,4.2,4.3l0,0l0.1,0.1c1,1,2.4,2.4,3.5,3.5l0,0c0.6,0.6,0.8,1.3,0.8,1.8l0,0
		c0,1.7-1.4,3.1-3.1,3.4l0,0c0,0.1,0,0.1,0,0.3l0,0c0,2.3-1.5,4-3.6,4l0,0c-0.1,0-0.3,0-0.6,0l0,0C92.1,45.4,80.7,63.4,79,66.6l0,0
		c-1.7,2.8-1.1,6-5.3,9.9l0,0c-3.9,3.7-35.5,32.3-36.2,33.5l0,0c-1.1,1.6-1,0.7-1.7,3.1l0,0c-0.4,1.8-3.8,11.6-12.3,11.8l0,0
		C23.1,124.3,22.5,124.3,22.1,124.3L22.1,124.3z M22.2,122.6c0.4,0,0.8,0.1,1.1,0.1l0,0c7,0.1,10.3-8.9,10.6-10.4l0,0
		c0.4-2.6,1.1-2.8,2-3.8l0,0c1.1-1.4,32.4-29.8,36.4-33.6l0,0c3.8-3.5,3.1-6,5-9.5l0,0c1.8-3.3,13.6-21.8,19.7-31.1l0,0l0.3-0.6
		l0.6,0.1c0.3,0,0.4,0.1,0.7,0.1l0,0c1.1,0,1.8-0.7,1.8-2.3l0,0c0-0.3,0-0.6-0.1-1l0,0l-0.3-1.3l1.3,0.3c0.1,0,0.1,0,0.3,0l0,0
		c1,0,2-1,2-1.7l0,0c0-0.3-0.1-0.4-0.3-0.7l0,0c-1-1-2.5-2.6-3.4-3.5l0,0l-0.1-0.1c0,0-2.7-2.7-4.2-4.3l0,0
		c-0.3-0.3-0.4-0.3-0.7-0.3l0,0c-0.7,0-1.7,0.9-1.7,2l0,0c0,0.1,0,0.1,0,0.3l0,0l0.3,1.4L92,22.6c-0.3-0.1-0.7-0.1-1-0.1l0,0
		c-1.5,0-2.2,0.9-2.2,1.8l0,0c0,0.1,0,0.4,0.1,0.7l0,0l0.1,0.6L88.5,26c-9.1,6.2-27.4,18.2-30.6,20l0,0c-3.5,2-5.9,1.3-9.4,5.1l0,0
		c-3.8,4-31.7,35.7-33.1,36.9l0,0c-1,0.9-1.3,1.4-3.8,2l0,0c-1.5,0.3-10.5,3.7-10.3,10.8l0,0c0,0.4,0,0.7,0.1,1.1l0,0
		c0.4,3,2.8,7.1,7.6,12.1l0,0l0,0C14.8,119.3,19.2,122.2,22.2,122.6L22.2,122.6z M8.1,115.1L8.1,115.1
		C8.2,115.1,8.2,115.1,8.1,115.1L8.1,115.1L8.1,115.1L8.1,115.1z"/>
	<path class="st0" d="M27.3,78.9C21.8,85,16.9,90.4,16.5,90.8c-1,0.7-0.7,1-2.7,1.4c-1.4,0.3-9.4,3.3-8.5,10.2c0.3,2.7,2.4,6,6,9.8
		l0,0c4.2,4.3,7.7,6.5,10.5,7c6.9,0.9,9.6-7.2,10.1-8.7c0.4-2,0.7-1.7,1.4-2.7c0.3-0.4,5.7-5.4,11.7-10.9L27.3,78.9z"/>
	<g>
		<path class="st0" d="M108.8,22c-1.1,1.1-2.8,1.1-3.8,0c-1.1-1.1-1-2.8,0-3.8c1.1-1.1,2.8-1.1,3.8,0C109.8,19.3,109.8,21,108.8,22z
			"/>
		<path class="st0" d="M122.8,8.4c-0.7,0.7-1.8,0.7-2.4,0c-0.7-0.7-0.7-1.8,0-2.6s1.8-0.7,2.5,0C123.5,6.7,123.5,7.7,122.8,8.4z"/>
		<path class="st0" d="M115.1,5.9c-2-2-5.2-2-7.3,0c-2,2-2,5.2,0,7.4c2,2,5.2,2,7.3,0C117,11.2,117,7.8,115.1,5.9z M110.7,8.7
			c-0.7-0.7-0.7-1.8,0-2.6c0.7-0.7,1.8-0.7,2.5,0s0.7,1.8,0,2.4C112.6,9.4,111.4,9.4,110.7,8.7z"/>
		<path class="st0" d="M124.6,2c-0.4,0.4-1.1,0.4-1.7,0c-0.4-0.4-0.4-1.1,0-1.7c0.4-0.4,1.1-0.4,1.7,0C125.1,0.9,125.1,1.6,124.6,2z
			"/>
	</g>
	<path class="st0" d="M47,52.7L27,74.8l22.1,22.4l22-20.1L47,52.7z"/>
	<path class="st0" d="M87.7,29.5c-8.9,6.8-26.8,18.3-29.2,19.6c-2.5,1.4-4.6,1-7.4,4.1l19.3,19.6c3.1-3,2.7-5.1,4.1-7.5
		c1.4-2.6,12.7-20.4,19.4-29.6L87.7,29.5z M81.9,46.9c-0.7,0.7-1.8,0.7-2.5,0c-0.7-0.7-0.7-1.8,0-2.4c0.7-0.7,1.8-0.7,2.4,0
		C82.5,45,82.5,46.1,81.9,46.9z M83.8,40.5c-0.4,0.4-1.1,0.4-1.7,0c-0.4-0.4-0.4-1.1,0-1.7c0.4-0.4,1.1-0.4,1.7,0
		C84.2,39.3,84.2,40,83.8,40.5z"/>
</g>
</svg>
