<?xml version="1.0" encoding="utf-8"?>
<!-- Generator: Adobe Illustrator 21.0.0, SVG Export Plug-In . SVG Version: 6.00 Build 0)  -->
<svg version="1.1" id="Capa_1" xmlns="http://www.w3.org/2000/svg" xmlns:xlink="http://www.w3.org/1999/xlink" x="0px" y="0px"
	 viewBox="0 0 200 200" style="enable-background:new 0 0 200 200;" xml:space="preserve">
<style type="text/css">
	.st0{fill:#FFFFFF;}
</style>
<g>
	<path class="st0" d="M152.3,106V17.2H19.9v165.5h60.9c4.4,0,8,3.6,8,8s-3.6,8-8,8H11.9c-4.4,0-8-3.6-8-8V9.3c0-4.4,3.6-8,8-8h148.4
		c4.4,0,8,3.6,8,8V106c0,4.4-3.6,8-8,8S152.3,110.3,152.3,106z M193.3,125.3c-3.3-2.9-8.4-2.6-11.3,0.7l-43.6,48.5l-21.9-21
		c-3.2-3-8.2-2.9-11.3,0.3c-3,3.2-2.9,8.2,0.3,11.3l27.8,26.8c1.5,1.5,3.5,2.3,5.5,2.3c0.1,0,0.1,0,0.3,0c2.1-0.1,4.2-1,5.5-2.6
		l49-54.6C196.8,133.2,196.6,128.2,193.3,125.3z M123.2,47.7H51.7c-4.4,0-8,3.6-8,8s3.6,8,8,8h71.5c4.4,0,8-3.6,8-8
		S127.6,47.7,123.2,47.7z M131.1,99.3c0-4.4-3.6-8-8-8H51.7c-4.4,0-8,3.6-8,8s3.6,8,8,8h71.5C127.6,107.3,131.1,103.7,131.1,99.3z
		 M51.7,133.8c-4.4,0-8,3.6-8,8c0,4.4,3.6,8,8,8h21.2c4.4,0,8-3.6,8-8c0-4.4-3.6-8-8-8H51.7z"/>
</g>
</svg>
