<?xml version="1.0" encoding="utf-8"?>
<!-- Generator: Adobe Illustrator 21.0.0, SVG Export Plug-In . SVG Version: 6.00 Build 0)  -->
<svg version="1.1" id="Capa_1" xmlns="http://www.w3.org/2000/svg" xmlns:xlink="http://www.w3.org/1999/xlink" x="0px" y="0px"
	 viewBox="0 0 125 125" style="enable-background:new 0 0 125 125;" xml:space="preserve">
<g>
	<path d="M100,29.2c-2.7,0-5.1,0.7-7.3,2c-2.1-1.2-4.6-2-7.3-2c-8,0-14.6,6.5-14.6,14.6s6.5,14.6,14.6,14.6c2.7,0,5.1-0.7,7.3-2
		c2.1,1.2,4.6,2,7.3,2c8,0,14.6-6.5,14.6-14.6S108,29.2,100,29.2z M95.8,43.8c0,2.9-1.2,5.5-3.1,7.4c-1.9-1.9-3.1-4.5-3.1-7.4
		c0-2.9,1.2-5.5,3.1-7.4C94.6,38.2,95.8,40.8,95.8,43.8z M75,43.8c0-5.7,4.7-10.4,10.4-10.4c1.3,0,2.6,0.3,3.7,0.7
		c-2.3,2.6-3.7,6-3.7,9.7c0,3.7,1.4,7.1,3.7,9.7c-1.2,0.4-2.4,0.7-3.7,0.7C79.7,54.2,75,49.5,75,43.8z M100,54.2
		c-1.3,0-2.6-0.3-3.7-0.7c2.3-2.6,3.7-6,3.7-9.7c0-3.7-1.4-7.1-3.7-9.7c1.2-0.4,2.4-0.7,3.7-0.7c5.7,0,10.4,4.7,10.4,10.4
		S105.7,54.2,100,54.2z"/>
	<path d="M116.2,16.7H8.8c-4.8,0-8.8,3.9-8.8,8.8v74.1c0,4.8,3.9,8.8,8.8,8.8h107.4c4.8,0,8.8-3.9,8.8-8.8V25.5
		C125,20.6,121.1,16.7,116.2,16.7z M120.8,99.5c0,2.5-2.1,4.6-4.6,4.6H8.8c-2.5,0-4.6-2.1-4.6-4.6V25.5c0-2.5,2.1-4.6,4.6-4.6h107.4
		c2.5,0,4.6,2.1,4.6,4.6V99.5z"/>
	<path d="M12.5,37.5h18.7c1.2,0,2.1-0.9,2.1-2.1c0-1.1-0.9-2.1-2.1-2.1H12.5c-1.2,0-2.1,0.9-2.1,2.1C10.4,36.6,11.4,37.5,12.5,37.5z
		"/>
	<path d="M58.3,33.3H39.6c-1.2,0-2.1,0.9-2.1,2.1c0,1.1,0.9,2.1,2.1,2.1h18.7c1.2,0,2.1-0.9,2.1-2.1C60.4,34.3,59.5,33.3,58.3,33.3z
		"/>
	<path d="M12.5,47.9h2.1c1.2,0,2.1-0.9,2.1-2.1c0-1.1-0.9-2.1-2.1-2.1h-2.1c-1.2,0-2.1,0.9-2.1,2.1C10.4,47,11.4,47.9,12.5,47.9z"/>
	<path d="M22.9,43.8c-1.2,0-2.1,0.9-2.1,2.1c0,1.1,0.9,2.1,2.1,2.1h4.2c1.2,0,2.1-0.9,2.1-2.1c0-1.1-0.9-2.1-2.1-2.1H22.9z"/>
	<path d="M39.6,45.8c0-1.1-0.9-2.1-2.1-2.1h-2.1c-1.2,0-2.1,0.9-2.1,2.1c0,1.1,0.9,2.1,2.1,2.1h2.1C38.7,47.9,39.6,47,39.6,45.8z"/>
	<path d="M50,47.9c1.2,0,2.1-0.9,2.1-2.1c0-1.1-0.9-2.1-2.1-2.1h-4.2c-1.2,0-2.1,0.9-2.1,2.1c0,1.1,0.9,2.1,2.1,2.1H50z"/>
	<path d="M56.9,44.4c-0.4,0.4-0.6,0.9-0.6,1.5c0,0.6,0.2,1.1,0.6,1.5c0.4,0.4,0.9,0.6,1.5,0.6s1.1-0.2,1.5-0.6
		c0.4-0.4,0.6-0.9,0.6-1.5s-0.2-1.1-0.6-1.5C59,43.6,57.6,43.6,56.9,44.4z"/>
	<path d="M10.4,93.7h22.9V77.1H10.4V93.7z M14.6,81.2h14.6v8.3H14.6V81.2z"/>
	<path d="M37.5,93.7h22.9V77.1H37.5V93.7z M41.7,81.2h14.6v8.3H41.7V81.2z"/>
	<path d="M64.6,93.7h22.9V77.1H64.6V93.7z M68.7,81.2h14.6v8.3H68.7V81.2z"/>
	<path d="M91.7,93.7h22.9V77.1H91.7V93.7z M95.8,81.2h14.6v8.3H95.8V81.2z"/>
</g>
</svg>
