<?xml version="1.0" encoding="utf-8"?>
<!-- Generator: Adobe Illustrator 21.0.0, SVG Export Plug-In . SVG Version: 6.00 Build 0)  -->
<svg version="1.1" id="Calque_1" xmlns="http://www.w3.org/2000/svg" xmlns:xlink="http://www.w3.org/1999/xlink" x="0px" y="0px"
	 viewBox="0 0 125 125" style="enable-background:new 0 0 125 125;" xml:space="preserve">
<style type="text/css">
	.st0{fill:#212121;}
</style>
<g>
	<g>
		<g>
			<path class="st0" d="M124.2,47.2c0-14.8-12-26.8-26.8-27.1C90,8.1,76.6,0,61.4,0C50.5,0,40.3,4.2,32.9,11.3
				c-18,1.1-32.1,16.2-32.1,34.2c0,9.9,4.2,18.7,10.9,25l21.5,54.6H90l21.5-55.3C118.9,65.5,124.2,56.7,124.2,47.2z M25.9,86.3v-7.8
				c2.8,0.7,6,1.1,8.8,1.1c0.4,0,0.4,0,0.7,0V86C35.7,92.7,25.9,92.7,25.9,86.3z M43.8,110.7V80.3c3.2,1.4,6.3,2.5,9.9,3.2v27.1
				C53.7,116.6,43.8,116.6,43.8,110.7z M66.4,112.8V83.9c3.5-0.4,6.7-1.1,9.9-2.5v31.4C75.9,119.1,66.4,119.1,66.4,112.8z
				 M98.4,83.5c0,6.3-9.9,6.3-9.9,0v-9.9c0.4-0.4,0.4-0.4,0.7-0.7c2.5,0.7,4.9,1.1,7.8,1.1c0.4,0,1.1,0,1.4,0L98.4,83.5L98.4,83.5z
				 M97,63.1c-3.2,0-8.5-1.1-11.3-2.8c-0.4,0.4-0.4,0.7-0.7,1.1c-5.6,7-14.4,11.6-24,11.6c-6.3,0-12.3-2.1-17.3-5.3
				c-3.2,0.7-7.4,1.1-10.9,1.1c-12-0.7-21.5-10.9-21.5-22.9c0-8.1,4.2-15.2,10.6-19.4c0,0,0,0,0,0.4c1.8-1.4,3.9-2.1,6-2.8
				c2.1-0.7,4.2-1.1,6.3-1.1c0.4,0,0.7,0,0.7,0l0,0c0.7,0,1.1,0,1.8,0c5.6-7,14.1-11.3,24-11.3c13,0,24.3,9.5,28.5,21.1
				c1.4-0.4,5.3-0.7,7-0.7c8.8,0,15.9,7,15.9,15.9C112.9,56,105.8,63.1,97,63.1z"/>
			<path class="st0" d="M26.9,49c-6.7,0-6.7,10.2,0,10.2S33.6,49,26.9,49z"/>
			<path class="st0" d="M37.8,53.2c-3.5,0-3.5,5.6,0,5.6S41.4,53.2,37.8,53.2z"/>
			<path class="st0" d="M24.8,37.7c-2.8,0-2.8,4.6,0,4.6S27.6,37.7,24.8,37.7z"/>
			<path class="st0" d="M107.3,43c-4.2,0-4.2,6.7,0,6.7C111.5,49.7,111.5,43,107.3,43z"/>
		</g>
	</g>
</g>
</svg>
