<?xml version="1.0" encoding="utf-8"?>
<!-- Generator: Adobe Illustrator 21.0.0, SVG Export Plug-In . SVG Version: 6.00 Build 0)  -->
<svg version="1.1" id="Calque_1" xmlns="http://www.w3.org/2000/svg" xmlns:xlink="http://www.w3.org/1999/xlink" x="0px" y="0px"
	 viewBox="0 0 125 125" style="enable-background:new 0 0 125 125;" xml:space="preserve">
<style type="text/css">
	.st0{fill:#212121;}
</style>
<g>
	<path class="st0" d="M39.8,45.5c0.6,0.6,1.5,0.9,2.2,0.9c0.7,0,1.7-0.4,2.2-0.9c5.9-5.7,5.9-15.4,0-21.3l0,0l0,0
		c-3.3-3.3-3.3-8.9,0-12.2c1.3-1.3,1.3-3.1,0-4.4s-3.1-1.3-4.4,0c-5.9,5.9-5.9,15.4,0,21.1l0,0c3.3,3.3,3.3,8.9,0,12.4
		C38.5,42.3,38.5,44.4,39.8,45.5z"/>
	<path class="st0" d="M60.4,45.5c0.6,0.6,1.5,0.9,2.2,0.9c0.7,0,1.7-0.4,2.2-0.9c5.7-5.7,5.7-15.2,0.2-21.1l0,0l-0.2-0.2
		c-3.3-3.3-3.3-8.9,0-12.4c1.3-1.3,1.3-3.1,0-4.4c-1.3-1.3-3.1-1.3-4.4,0c-5.7,5.9-5.9,15.4,0,21.1l0,0l0,0c3.3,3.3,3.3,8.9,0,12.4
		C59.1,42.3,59.1,44.4,60.4,45.5z"/>
	<path class="st0" d="M80.7,45.5c0.6,0.6,1.5,0.9,2.2,0.9c0.7,0,1.7-0.4,2.2-0.9c5.7-5.7,5.9-15.4,0-21.1l0,0l0,0
		c-1.7-1.7-2.6-3.9-2.6-6.1c0-2.4,0.9-4.4,2.6-6.1c1.3-1.3,1.3-3.1,0-4.4c-1.3-1.3-3.1-1.3-4.4,0c-2.8,2.8-4.4,6.7-4.4,10.6
		s1.5,7.8,4.3,10.6l0,0l0,0c3.3,3.3,3.3,8.9,0,12.4C79.6,42.3,79.6,44.4,80.7,45.5z"/>
	<path class="st0" d="M0.4,59.6C2.6,77.9,13,94,28.1,104h20.6v6.3h-15v9.1h46.9c5.9,0,10.7-4.8,10.7-10.7v-1.5
		c18.1-9.4,30.7-27.2,33.3-47.8l0.4-3.5H0L0.4,59.6z M88.5,86.6c6.1-3.3,10.7-9.1,12.4-15.7c0.4-1.7,2-2.8,3.7-2.2
		c1.7,0.4,2.8,2,2.2,3.7c-2.2,8.5-7.8,15.7-15.6,19.8c-0.6,0.2-0.9,0.4-1.5,0.4c-1.1,0-2.2-0.6-2.8-1.7C86.5,89.4,87,87.3,88.5,86.6
		z M82.4,89.9c2,0,3.7,1.7,3.7,3.7c0,2-1.7,3.7-3.7,3.7s-3.7-1.7-3.7-3.7S80.4,89.9,82.4,89.9z"/>
</g>
</svg>
