<?xml version="1.0" encoding="utf-8"?>
<!-- Generator: Adobe Illustrator 21.0.0, SVG Export Plug-In . SVG Version: 6.00 Build 0)  -->
<svg version="1.1" id="Layer_1" xmlns="http://www.w3.org/2000/svg" xmlns:xlink="http://www.w3.org/1999/xlink" x="0px" y="0px"
	 viewBox="0 0 66.7 40" style="enable-background:new 0 0 66.7 40;" xml:space="preserve">
<style type="text/css">
	.st0{fill:#FFB600;}
	.st1{fill:#F7981D;}
	.st2{fill:#FF8500;}
	.st3{fill:#FF5050;}
	.st4{fill:#E52836;}
	.st5{fill:#CB2026;}
	.st6{fill:#FFFFFF;}
	.st7{fill:#DCE5E5;}
</style>
<path class="st0" d="M66.7,20c0,11-8.9,20-20,20c-11,0-20-9-20-20l0,0c0-11,8.9-20,19.9-20C57.8,0,66.7,9,66.7,20L66.7,20z"/>
<path class="st1" d="M46.7,0c11,0,20,9,20,20l0,0c0,11-8.9,20-20,20c-11,0-20-9-20-20"/>
<path class="st2" d="M46.7,0c11,0,20,9,20,20l0,0c0,11-8.9,20-20,20"/>
<path class="st3" d="M19.8,0C8.9,0.1,0,9,0,20s8.9,20,20,20c5.2,0,9.8-2,13.4-5.2l0,0l0,0c0.7-0.6,1.4-1.4,2-2.1h-4.1
	c-0.5-0.6-1.1-1.4-1.5-2h7.1c0.4-0.6,0.8-1.4,1.2-2.1h-9.4c-0.3-0.6-0.6-1.4-0.8-2.1h11c0.6-2,1.1-4.1,1.1-6.3
	c0-1.5-0.2-2.9-0.4-4.2H27.2c0.1-0.7,0.3-1.4,0.5-2.1h11c-0.2-0.7-0.5-1.5-0.8-2.1h-9.3c0.3-0.7,0.7-1.4,1.2-2.1h7.1
	c-0.4-0.7-1-1.5-1.6-2.1h-3.9c0.6-0.7,1.3-1.4,2-2c-3.5-3.3-8.3-5.2-13.4-5.2C19.9,0,19.9,0,19.8,0z"/>
<path class="st4" d="M0,20c0,11,8.9,20,20,20c5.2,0,9.8-2,13.4-5.2l0,0l0,0c0.7-0.6,1.4-1.4,2-2.1h-4.1c-0.5-0.6-1.1-1.4-1.5-2h7.1
	c0.4-0.6,0.8-1.4,1.2-2.1h-9.4c-0.3-0.6-0.6-1.4-0.8-2.1h11c0.6-2,1.1-4.1,1.1-6.3c0-1.5-0.2-2.9-0.4-4.2H27.2
	c0.1-0.7,0.3-1.4,0.5-2.1h11c-0.2-0.7-0.5-1.5-0.8-2.1h-9.3c0.3-0.7,0.7-1.4,1.2-2.1h7.1c-0.4-0.7-1-1.5-1.6-2.1h-3.9
	c0.6-0.7,1.3-1.4,2-2c-3.5-3.3-8.3-5.2-13.4-5.2h-0.1"/>
<path class="st5" d="M20,40c5.2,0,9.8-2,13.4-5.2l0,0l0,0c0.7-0.6,1.4-1.4,2-2.1h-4.1c-0.5-0.6-1.1-1.4-1.5-2h7.1
	c0.4-0.6,0.8-1.4,1.2-2.1h-9.4c-0.3-0.6-0.6-1.4-0.8-2.1h11c0.6-2,1.1-4.1,1.1-6.3c0-1.5-0.2-2.9-0.4-4.2H27.2
	c0.1-0.7,0.3-1.4,0.5-2.1h11c-0.2-0.7-0.5-1.5-0.8-2.1h-9.3c0.3-0.7,0.7-1.4,1.2-2.1h7.1c-0.4-0.7-1-1.5-1.6-2.1h-3.9
	c0.6-0.7,1.3-1.4,2-2c-3.5-3.3-8.3-5.2-13.4-5.2h-0.1"/>
<g>
	<path class="st6" d="M27.1,25.1l0.3-1.8c-0.1,0-0.3,0.1-0.5,0.1c-0.7,0-0.8-0.4-0.7-0.6l0.6-3.7h1.2l0.3-2h-1.1l0.2-1.3h-2.1
		c0,0-1.3,7-1.3,7.8c0,1.3,0.7,1.8,1.7,1.8C26.3,25.4,26.9,25.2,27.1,25.1z"/>
	<path class="st6" d="M27.8,21.7c0,3,2,3.7,3.7,3.7c1.6,0,2.2-0.3,2.2-0.3l0.4-2c0,0-1.2,0.5-2.2,0.5c-2.3,0-1.9-1.7-1.9-1.7h4.3
		c0,0,0.3-1.4,0.3-1.9c0-1.4-0.7-3.1-3.1-3.1C29.4,16.7,27.8,19,27.8,21.7z M31.5,18.6c1.2,0,1,1.4,1,1.5h-2.3
		C30.2,20,30.4,18.6,31.5,18.6z"/>
	<path class="st6" d="M45,25.1l0.4-2.3c0,0-1.1,0.5-1.8,0.5c-1.5,0-2.1-1.2-2.1-2.4c0-2.5,1.3-3.9,2.8-3.9c1.1,0,1.9,0.6,1.9,0.6
		l0.3-2.2c0,0-1.3-0.5-2.4-0.5c-2.4,0-4.9,2.1-4.9,6.1c0,2.6,1.3,4.4,3.8,4.4C43.8,25.4,45,25.1,45,25.1z"/>
	<path class="st6" d="M15.4,16.7c-1.5,0-2.5,0.4-2.5,0.4l-0.3,1.8c0,0,1-0.4,2.3-0.4c0.7,0,1.4,0.1,1.4,0.7c0,0.4-0.1,0.5-0.1,0.5
		s-0.6,0-1,0c-1.8,0-3.8,0.7-3.8,3.2c0,1.9,1.3,2.3,2,2.3c1.5,0,2.1-1,2.2-1l-0.1,0.8h1.9l0.8-5.8C18.3,16.8,16.2,16.7,15.4,16.7z
		 M15.9,21.5c0,0.3-0.2,2-1.5,2c-0.6,0-0.8-0.5-0.8-0.8c0-0.5,0.3-1.3,1.9-1.3C15.8,21.5,15.9,21.5,15.9,21.5z"/>
	<path class="st6" d="M20.3,25.3c0.5,0,3.2,0.1,3.2-2.8c0-2.6-2.5-2.1-2.5-3.2c0-0.5,0.4-0.7,1.2-0.7c0.3,0,1.5,0.1,1.5,0.1l0.3-1.9
		c0,0-0.7-0.2-2-0.2c-1.6,0-3.2,0.6-3.2,2.8c0,2.4,2.6,2.2,2.6,3.2c0,0.6-0.7,0.7-1.3,0.7c-1,0-1.9-0.3-1.9-0.3l-0.3,1.9
		C18,25.1,18.5,25.3,20.3,25.3z"/>
	<path class="st6" d="M62.5,15l-0.4,2.9c0,0-0.8-1.1-2-1.1c-1.9,0-3.6,2.3-3.6,5.1c0,1.7,0.8,3.5,2.6,3.5c1.3,0,2-0.8,2-0.8
		l-0.1,0.7h2.1l1.6-10.2L62.5,15z M61.6,20.6c0,1.2-0.5,2.6-1.7,2.6c-0.7,0-1.2-0.6-1.2-1.7c0-1.7,0.7-2.8,1.7-2.8
		C61.2,18.8,61.6,19.4,61.6,20.6z"/>
	<path class="st6" d="M3.9,25.2l1.3-7.6l0.2,7.6h1.5l2.8-7.6l-1.2,7.6h2.2L12.4,15H8.9l-2.1,6.2L6.7,15H3.6L1.9,25.2H3.9z"/>
	<path class="st6" d="M36.7,25.2c0.6-3.5,0.7-6.3,2.2-5.8c0.2-1.4,0.5-1.9,0.7-2.4c0,0-0.1,0-0.4,0c-1,0-1.7,1.3-1.7,1.3l0.2-1.2h-2
		l-1.4,8.3h2.3V25.2z"/>
	<path class="st6" d="M49.8,16.7c-1.5,0-2.5,0.4-2.5,0.4L47,18.9c0,0,1-0.4,2.3-0.4c0.7,0,1.4,0.1,1.4,0.7c0,0.4-0.1,0.5-0.1,0.5
		s-0.6,0-1,0c-1.8,0-3.8,0.7-3.8,3.2c0,1.9,1.3,2.3,2,2.3c1.5,0,2.1-1,2.2-1l-0.1,0.8h1.9l0.8-5.8C52.8,16.8,50.6,16.7,49.8,16.7z
		 M50.4,21.5c0,0.3-0.2,2-1.5,2c-0.6,0-0.8-0.5-0.8-0.8c0-0.5,0.3-1.3,1.9-1.3C50.3,21.5,50.3,21.5,50.4,21.5z"/>
	<path class="st6" d="M54.5,25.2c0.6-3.5,0.7-6.3,2.2-5.8c0.2-1.4,0.5-1.9,0.7-2.4c0,0-0.1,0-0.4,0c-1,0-1.7,1.3-1.7,1.3l0.2-1.2h-2
		l-1.4,8.3h2.3V25.2z"/>
</g>
<g>
	<path class="st7" d="M23.8,23.6c0,1.3,0.7,1.8,1.7,1.8c0.7,0,1.4-0.2,1.6-0.3l0.3-1.8c-0.1,0-0.3,0.1-0.5,0.1
		c-0.7,0-0.8-0.4-0.7-0.6l0.6-3.7h1.2l0.3-2h-1.1l0.2-1.3"/>
	<path class="st7" d="M28.9,21.7c0,3,1,3.7,2.6,3.7c1.6,0,2.2-0.3,2.2-0.3l0.4-2c0,0-1.2,0.5-2.2,0.5c-2.3,0-1.9-1.7-1.9-1.7h4.3
		c0,0,0.3-1.4,0.3-1.9c0-1.4-0.7-3.1-3.1-3.1C29.4,16.7,28.9,19,28.9,21.7z M31.5,18.6c1.2,0,1.4,1.4,1.4,1.5h-2.8
		C30.2,20,30.4,18.6,31.5,18.6z"/>
	<path class="st7" d="M45,25.1l0.4-2.3c0,0-1.1,0.5-1.8,0.5c-1.5,0-2.1-1.2-2.1-2.4c0-2.5,1.3-3.9,2.8-3.9c1.1,0,1.9,0.6,1.9,0.6
		l0.3-2.2c0,0-1.3-0.5-2.4-0.5c-2.4,0-3.8,2.1-3.8,6.1c0,2.6,0.2,4.4,2.8,4.4C43.8,25.4,45,25.1,45,25.1z"/>
	<path class="st7" d="M12.6,19c0,0,1-0.4,2.3-0.4c0.7,0,1.4,0.1,1.4,0.7c0,0.4-0.1,0.5-0.1,0.5s-0.6,0-1,0c-1.8,0-3.8,0.7-3.8,3.2
		c0,1.9,1.3,2.3,2,2.3c1.5,0,2.1-1,2.2-1l-0.1,0.8h1.9l0.8-5.8c0-2.4-2.1-2.5-3-2.5 M16.9,21.5c0,0.3-1.3,2-2.5,2
		c-0.6,0-0.8-0.5-0.8-0.8c0-0.5,0.3-1.3,1.9-1.3C15.8,21.5,16.9,21.5,16.9,21.5z"/>
	<path class="st7" d="M18,25.1c0,0,0.6,0.2,2.4,0.2c0.5,0,3.2,0.1,3.2-2.8c0-2.6-2.5-2.1-2.5-3.2c0-0.5,0.4-0.7,1.2-0.7
		c0.3,0,1.5,0.1,1.5,0.1l0.3-1.9c0,0-0.7-0.2-2-0.2c-1.6,0-2.1,0.6-2.1,2.8c0,2.4,1.6,2.2,1.6,3.2c0,0.6-0.7,0.7-1.3,0.7"/>
	<path class="st7" d="M62.1,17.9c0,0-0.8-1.1-2-1.1c-1.9,0-2.5,2.3-2.5,5.1c0,1.7-0.2,3.5,1.6,3.5c1.3,0,2-0.8,2-0.8l-0.1,0.7h2.1
		l1.6-10.2 M62,20.6c0,1.2-1,2.6-2.1,2.6c-0.7,0-1.2-0.6-1.2-1.7c0-1.7,0.7-2.8,1.7-2.8C61.2,18.8,62,19.4,62,20.6z"/>
	<path class="st7" d="M3.9,25.2l1.3-7.6l0.2,7.6h1.5l2.8-7.6l-1.2,7.6h2.2L12.4,15H9.7l-3,6.2L6.7,15H5.5L1.9,25.2H3.9z"/>
	<path class="st7" d="M34.5,25.2h2.2c0.6-3.5,0.7-6.3,2.2-5.8c0.2-1.4,0.5-1.9,0.7-2.4c0,0-0.1,0-0.4,0c-1,0-1.7,1.3-1.7,1.3
		l0.2-1.2"/>
	<path class="st7" d="M47,19c0,0,1-0.4,2.3-0.4c0.7,0,1.4,0.1,1.4,0.7c0,0.4-0.1,0.5-0.1,0.5s-0.6,0-1,0c-1.8,0-3.8,0.7-3.8,3.2
		c0,1.9,1.3,2.3,2,2.3c1.5,0,2.1-1,2.2-1l-0.1,0.8h1.9l0.8-5.8c0-2.4-2.1-2.5-3-2.5 M51.3,21.5c0,0.3-1.3,2-2.5,2
		c-0.6,0-0.8-0.5-0.8-0.8c0-0.5,0.3-1.3,1.9-1.3C50.3,21.5,51.3,21.5,51.3,21.5z"/>
	<path class="st7" d="M52.3,25.2h2.2c0.6-3.5,0.7-6.3,2.2-5.8c0.2-1.4,0.5-1.9,0.7-2.4c0,0-0.1,0-0.4,0c-1,0-1.7,1.3-1.7,1.3
		l0.2-1.2"/>
</g>
</svg>
