<?xml version="1.0" encoding="utf-8"?>
<!-- Generator: Adobe Illustrator 21.0.0, SVG Export Plug-In . SVG Version: 6.00 Build 0)  -->
<svg version="1.1" id="Layer_1" xmlns="http://www.w3.org/2000/svg" xmlns:xlink="http://www.w3.org/1999/xlink" x="0px" y="0px"
	 viewBox="0 0 125 125" style="enable-background:new 0 0 125 125;" xml:space="preserve">
<style type="text/css">
	.st0{fill:#002987;}
	.st1{fill:#0085CC;}
	.st2{fill:#00186A;}
</style>
<g>
	<path class="st0" d="M58,27.9H91c5.1,0,9.9,1.6,13.7,4.4c0.2-1.7,0.3-3.5,0.3-5.2l0,0c0-14.9-12.1-27-27-27H32.8
		c-2.8,0-5.3,2.1-5.7,4.9l-16.7,99c-0.6,3.6,2.1,6.8,5.7,6.8h16.5c2.8,0,5.3-2.1,5.8-4.9l5.2-30.9c0-0.2,0.1-0.5,0.1-0.7l6.7-39.9
		C51.1,30.6,54.3,27.9,58,27.9z"/>
	<path class="st1" d="M104.7,32.3c-2.6,21-20.5,37.3-42.3,37.3H49.8c-2.8,0-5.3,1.9-6.1,4.6L36.2,119c-0.5,3.1,1.9,6,5.1,6h14.5
		c2.5,0,4.6-1.8,5.1-4.3l4.1-24.4c0.7-4.2,4.4-7.3,8.6-7.3h3.8c20.6,0,37.4-16.7,37.4-37.4l0,0C114.7,43.7,110.8,36.6,104.7,32.3z"
		/>
	<path class="st2" d="M49.8,69.6h12.6c21.7,0,39.7-16.3,42.3-37.3c-3.9-2.8-8.6-4.4-13.7-4.4H58c-3.7,0-6.9,2.7-7.6,6.4l-6.7,39.9
		C44.5,71.5,47,69.6,49.8,69.6z"/>
</g>
</svg>
