<?xml version="1.0" encoding="utf-8"?>
<!-- Generator: Adobe Illustrator 21.0.0, SVG Export Plug-In . SVG Version: 6.00 Build 0)  -->
<svg version="1.1" id="Calque_1" xmlns="http://www.w3.org/2000/svg" xmlns:xlink="http://www.w3.org/1999/xlink" x="0px" y="0px"
	 viewBox="0 0 125 125" style="enable-background:new 0 0 125 125;" xml:space="preserve">
<path d="M87.7,58c-2.5,0-4.5,2-4.5,4.5c0,2.5,2,4.5,4.5,4.5c2.5,0,4.5-2,4.5-4.5C92.2,60,90.2,58,87.7,58z"/>
<path d="M106.1,63.2c-2-5.7-5.6-11-10.3-15.5l6.9-14.1c0.5-1.1,0.6-2.3,0.2-3.4c-0.4-1.1-1.2-2-2.2-2.5c-2-1-6.2-2.5-11.3-2.5
	c-5.3,0-12.9,1.7-20.2,9.6c-3.4-0.6-7-0.9-10.5-0.9c-15.6,0-29.6,6-38.6,15.5c-1-0.8-1.5-1.7-1.6-2.4c-0.1-1.1,1-2.4,1.9-3.3h0
	c0.6-0.6,0.9-1.3,0.9-2.2c0-1.7-1.4-3-3-3c-0.8,0-1.5,0.3-2.1,0.8l0,0c0,0,0,0,0,0c0,0,0,0,0,0c-2.7,2.6-4,5.4-3.7,8.3
	c0.2,2.3,1.5,4.5,3.7,6.4C11.6,60,9,67.3,9,75c0,11.8,6,23,16.5,30.8l-2.1,13.5c-0.2,1.5,0.2,2.9,1.1,4c0.9,1.1,2.3,1.7,3.8,1.7
	h17.3c2,0,4.2-1.3,5-3.2l2.7-5.8c1.6,0.1,3.1,0.2,4.7,0.2l2.6,5.6c0.9,1.9,3,3.2,5,3.2h17.3c1.5,0,2.9-0.6,3.8-1.7
	c0.9-1.1,1.3-2.6,1.1-4l-1.5-10.1c5-2.8,9.3-6.4,12.8-10.4c1.7-0.7,3.4-1.1,5-1.4c6.9-1.4,11.8-3.5,11.8-17.1
	C116,67.6,112.1,65,106.1,63.2z M108,89.4c-1,1.1-2.5,1.4-5.1,2c-2.1,0.4-4.4,0.9-7,2.1l-0.6,0.3l-0.4,0.5c-3.4,4.2-8,7.8-13.2,10.5
	l-2,1l2,13.1H66l-4.1-8.8l-2,0c-2.7,0.1-5.4-0.1-8-0.4l-2.2-0.3l-4.3,9.4H29.7l2.4-16l-1.6-1.1C20.7,95.2,15.1,85.4,15.1,75
	c0-19.4,19.5-35.2,43.5-35.2c3.7,0,7.4,0.4,11,1.1l1.8,0.4l1.2-1.4c4.9-5.8,10.5-8.8,16.7-8.8c2.9,0,5.4,0.7,7.2,1.3l-8.1,16.8
	l1.8,1.5c5.2,4.4,8.9,9.9,10.7,15.8l0.5,1.6l2.3,0.7c4.5,1.3,6.3,1.8,6.3,11.5C109.9,84.9,109.3,88,108,89.4z"/>
<path d="M70.7,46.1L70.7,46.1L70.7,46.1C70.7,46.1,70.7,46.1,70.7,46.1c-7.9-1.7-16.4-1.7-24.2,0h0h0l0,0c-1.1,0.2-2,1.3-2,2.5
	c0,1.4,1.1,2.5,2.5,2.5c0.2,0,0.4,0,0.5-0.1l0,0c7.2-1.5,14.9-1.5,22.2,0l0,0c0.2,0,0.3,0.1,0.5,0.1c1.4,0,2.5-1.1,2.5-2.5
	C72.7,47.3,71.9,46.3,70.7,46.1z"/>
<path d="M58.6,29.6c8.1,0,14.8-6.6,14.8-14.8C73.4,6.6,66.7,0,58.6,0c-8.2,0-14.8,6.6-14.8,14.8C43.8,22.9,50.4,29.6,58.6,29.6z
	 M58.6,5.9c4.9,0,8.9,4,8.9,8.9c0,4.9-4,8.9-8.9,8.9s-8.9-4-8.9-8.9C49.7,9.9,53.7,5.9,58.6,5.9z"/>
</svg>
