<?xml version="1.0" encoding="utf-8"?>
<!-- Generator: Adobe Illustrator 21.0.0, SVG Export Plug-In . SVG Version: 6.00 Build 0)  -->
<svg version="1.1" id="Calque_1" xmlns="http://www.w3.org/2000/svg" xmlns:xlink="http://www.w3.org/1999/xlink" x="0px" y="0px"
	 viewBox="0 0 125 125" style="enable-background:new 0 0 125 125;" xml:space="preserve">
<style type="text/css">
	.st0{fill:#212121;}
</style>
<g>
	<g>
		<g>
			<path class="st0" d="M68.9,89.2h33.4c6.7-6,17.5-15.6,17.5-15.6l-8.3-10.8c0,0-6.7,5.1-12.4-0.2C93.3,54.3,82.5,49,70.3,49
				c-11.5,0-26.9,5.8-31.1,17.7C50.7,69.7,65.5,76.8,68.9,89.2z"/>
			<path class="st0" d="M3.8,79.1c3,1.6,6.9,0.7,8.5-2.3c0,0,1.6,0.5,3.5,1.6l0.5,0.2c1.8,1.2,3.2,3.7,3.7,5.5
				c0.5,1.6,1.2,3.2,2.3,4.8c0,0,0.2,0,0.2,0.2h41.2c-2.5-5.1-7.8-10.4-15-13.8c-7.4-3.7-15.2-4.8-20.7-3.7
				c-2.1,0.5-5.1,0.5-6.9-0.7l-0.9-0.5c-1.8-1.2-3-2.3-3-2.3c1.6-3,0.7-6.9-2.3-8.5c-1.8-0.9-3.9-1.2-5.8-0.2
				c-1.4,0.5-2.5,1.6-3.2,3c-0.5,1.4,0,2.8,0.2,4.1c0.5,1.4-1.2,1.4-2.1,1.8c-0.2,0-0.5,0.2-0.9,0.5c-0.9,0.5-1.4,1.2-2.1,2.1
				C-0.4,73.6,0.8,77.5,3.8,79.1z"/>
		</g>
		<g>
			<path class="st0" d="M66.2,27.3c0.2,0.5,0.5,0.9,0.7,1.4l0.2,0.2c0,0,0.2,0.2,0.2,0.5c0.2,0.2,0.2,0.5,0.5,0.7
				c1.4,1.6,3,2.8,4.1,3.7c0.7,0.5,1.2,0.9,1.4,1.2c0.5,0.5,0.7,0.7,0.9,0.9c0.2,0.2,0.2,0.7,0.5,1.2c0,0,0,0.2,0,0.5l0,0l0,0
				c0-0.2,0,0,0,0l0,0l0,0v0.2c0,0.2,0,0.2,0,0.2v0.2c0,0.2,0,0.2,0,0.5c-0.2,1.2-0.7,2.3-1.4,3.5c-0.9,1.2-2.1,2.3-3.5,3.5
				c1.8,0.5,3.7,0.2,5.5-0.5s3.7-2.3,4.6-4.1c0.2-0.2,0.2-0.5,0.5-0.7c0-0.2,0.2-0.5,0.2-0.9l0.2-0.5v-0.2l0,0l0,0l0,0l0,0l0,0
				c0-0.2,0.2-0.5,0.2-0.9c0.2-1.2,0-2.5-0.5-3.9c-0.5-1.4-1.2-2.3-1.8-3.2c-0.7-0.9-1.6-1.6-2.3-2.1c-1.4-1.2-2.8-1.8-3.7-2.8
				l-0.2-0.2c0,0,0,0-0.2,0v-0.2l0,0l0,0l0,0l0,0l0,0c-0.2-0.2-0.5-0.5-0.5-0.7c-0.5-0.5-0.7-0.9-0.9-1.6c-0.5-1.2-0.9-2.3-0.9-3.7
				c0-0.7,0-1.4,0.2-2.1c0.2-0.7,0.7-1.4,1.2-2.3c-1.8,0.2-3.7,1.4-4.8,3.2s-1.4,4.1-1.2,6.2C65.5,25.3,65.7,26.4,66.2,27.3z"/>
			<path class="st0" d="M60.6,36.8c0,0.2,0.2,0.5,0.5,0.7l0.2,0.2c0,0.2,0.2,0.2,0.2,0.5c0.7,0.9,1.4,1.4,2.1,1.8
				c0.2,0.2,0.5,0.5,0.7,0.5c0.2,0.2,0.2,0.2,0.5,0.5c0,0,0.2,0.2,0.2,0.5c0,0,0,0,0,0.2l0,0l0,0l0,0l0,0l0,0l0,0l0,0v0.2
				c0,0.5-0.2,1.2-0.7,1.6c-0.5,0.7-0.9,1.2-1.6,1.8c0.9,0.2,1.8,0.2,2.8-0.2s1.8-1.2,2.5-2.1c0.2-0.2,0.2-0.5,0.5-0.9v-0.2l0,0l0,0
				l0,0l0,0l0,0c0-0.2,0-0.2,0-0.5c0-0.7,0-1.4-0.2-2.1c-0.2-0.7-0.7-1.2-0.9-1.6c-0.5-0.5-0.7-0.7-1.2-1.2
				c-0.7-0.5-1.4-0.9-1.8-1.4c-0.5-0.2-0.7-0.7-0.9-1.2s-0.5-1.2-0.5-1.6c0-0.7,0-1.4,0.7-2.1c-0.9,0-1.8,0.7-2.5,1.6
				c-0.7,0.9-0.9,2.1-0.7,3.2C60.2,35.6,60.4,36.1,60.6,36.8z"/>
		</g>
		<path class="st0" d="M8.4,90.8l6,7.8c3.5,4.4,10.6,7.8,16.1,7.8h4.6v0.5c0,2.3,1.8,4.1,4.1,4.1h54.5c2.3,0,4.1-1.8,4.1-4.1v-0.5
			h4.6c5.5,0,12.9-3.5,16.1-7.8c3.5-4.4,6-7.8,6-7.8S8.4,90.8,8.4,90.8z"/>
	</g>
</g>
</svg>
