<?xml version="1.0" encoding="utf-8"?>
<!-- Generator: Adobe Illustrator 21.0.0, SVG Export Plug-In . SVG Version: 6.00 Build 0)  -->
<svg version="1.1" id="Capa_1" xmlns="http://www.w3.org/2000/svg" xmlns:xlink="http://www.w3.org/1999/xlink" x="0px" y="0px"
	 viewBox="0 0 200 200" style="enable-background:new 0 0 200 200;" xml:space="preserve">
<style type="text/css">
	.st0{fill:#FFFFFF;}
</style>
<g>
	<g>
		<path class="st0" d="M61.4,74.6v-8.4C53,60.6,47.3,50.7,47.3,40.1C47.3,22.5,61.4,8.4,79,8.4s31.7,14.1,31.7,31.7
			c0,6.3-2.1,12.7-5.6,17.6c0.7,0,1.4,0,2.1,0c2.1,0,4.2,0,5.6,0.7c2.8-5.6,4.9-12,4.9-18.3C117.7,19,100.1,1.4,79,1.4
			S40.3,19,40.3,40.1C40.3,54.9,48.7,68.3,61.4,74.6z"/>
		<path class="st0" d="M103.6,40.1c0-13.4-11.3-24.6-24.6-24.6S54.4,26.8,54.4,40.1c0,7,2.8,12.7,7,16.9V40.1
			c0-9.9,7.7-17.6,17.6-17.6s17.6,7.7,17.6,17.6V57C100.8,52.8,103.6,47.2,103.6,40.1z"/>
		<path class="st0" d="M163.5,78.9c-5.6,0-10.6,4.9-10.6,10.6V105v2.1h-7V90.8v-8.4c0-5.6-4.9-10.6-10.6-10.6s-10.6,4.9-10.6,10.6v7
			V100h-7V89.5V75.4c0-5.6-4.9-10.6-10.6-10.6c-5.6,0-10.6,4.9-10.6,10.6v13.4v18.3h-7V89.5V40.1c0-5.6-4.9-10.6-10.6-10.6
			c-5.6,0-10.6,4.9-10.6,10.6v72.5C53.6,97.2,34.6,80.3,26.9,88.1c-7.7,7.7,12.7,28.9,40.1,75.3c12.7,21.1,28.2,35.2,54.9,35.2
			c28.9,0,52.8-23.9,52.8-52.8v-23.2V89.5C174.1,83.8,169.1,78.9,163.5,78.9z"/>
	</g>
</g>
</svg>
