<?xml version="1.0" encoding="utf-8"?>
<!-- Generator: Adobe Illustrator 21.0.0, SVG Export Plug-In . SVG Version: 6.00 Build 0)  -->
<svg version="1.1" id="Capa_1" xmlns="http://www.w3.org/2000/svg" xmlns:xlink="http://www.w3.org/1999/xlink" x="0px" y="0px"
	 viewBox="0 0 125 125" style="enable-background:new 0 0 125 125;" xml:space="preserve">
<style type="text/css">
	.st0{fill:#FFFFFF;}
</style>
<g>
	<g>
		<path class="st0" d="M119.1,21.6c-0.5-0.5-1.1-0.7-1.9-0.7H92L86.3,7.2c-0.8-2-2.3-3.7-4.4-5.1C79.8,0.7,77.7,0,75.5,0h-26
			c-2.2,0-4.3,0.7-6.4,2.1c-2.1,1.4-3.6,3.1-4.4,5.1L33,20.8H7.8c-0.8,0-1.4,0.2-1.9,0.7c-0.5,0.5-0.7,1.1-0.7,1.9v5.2
			c0,0.8,0.2,1.4,0.7,1.9c0.5,0.5,1.1,0.7,1.9,0.7h7.8v77.5c0,4.5,1.3,8.3,3.8,11.5c2.6,3.2,5.6,4.8,9.2,4.8h67.7
			c3.6,0,6.6-1.6,9.2-4.9c2.5-3.3,3.8-7.2,3.8-11.7V31.2h7.8c0.8,0,1.4-0.2,1.9-0.7c0.5-0.5,0.7-1.1,0.7-1.9v-5.2
			C119.8,22.7,119.5,22.1,119.1,21.6z M48.3,11.3c0.4-0.5,0.8-0.8,1.4-0.9h25.8c0.5,0.1,1,0.4,1.4,0.9l3.9,9.5H44.3L48.3,11.3z
			 M99,108.4c0,1.2-0.2,2.3-0.6,3.3c-0.4,1-0.8,1.7-1.2,2.2c-0.4,0.5-0.7,0.7-0.9,0.7H28.6c-0.2,0-0.4-0.2-0.9-0.7
			c-0.4-0.5-0.8-1.2-1.2-2.2c-0.4-1-0.6-2.1-0.6-3.3V31.2H99L99,108.4L99,108.4z"/>
		<path class="st0" d="M39.1,99h5.2c0.8,0,1.4-0.2,1.9-0.7c0.5-0.5,0.7-1.1,0.7-1.9V49.5c0-0.8-0.2-1.4-0.7-1.9
			c-0.5-0.5-1.1-0.7-1.9-0.7h-5.2c-0.8,0-1.4,0.2-1.9,0.7c-0.5,0.5-0.7,1.1-0.7,1.9v46.9c0,0.8,0.2,1.4,0.7,1.9
			C37.7,98.7,38.3,99,39.1,99z"/>
		<path class="st0" d="M59.9,99h5.2c0.8,0,1.4-0.2,1.9-0.7c0.5-0.5,0.7-1.1,0.7-1.9V49.5c0-0.8-0.2-1.4-0.7-1.9
			c-0.5-0.5-1.1-0.7-1.9-0.7h-5.2c-0.8,0-1.4,0.2-1.9,0.7c-0.5,0.5-0.7,1.1-0.7,1.9v46.9c0,0.8,0.2,1.4,0.7,1.9
			C58.5,98.7,59.1,99,59.9,99z"/>
		<path class="st0" d="M80.7,99h5.2c0.8,0,1.4-0.2,1.9-0.7c0.5-0.5,0.7-1.1,0.7-1.9V49.5c0-0.8-0.2-1.4-0.7-1.9
			c-0.5-0.5-1.1-0.7-1.9-0.7h-5.2c-0.8,0-1.4,0.2-1.9,0.7c-0.5,0.5-0.7,1.1-0.7,1.9v46.9c0,0.8,0.2,1.4,0.7,1.9
			C79.3,98.7,80,99,80.7,99z"/>
	</g>
</g>
</svg>
