<?xml version="1.0" encoding="utf-8"?>
<!-- Generator: Adobe Illustrator 21.0.0, SVG Export Plug-In . SVG Version: 6.00 Build 0)  -->
<svg version="1.1" id="Capa_1" xmlns="http://www.w3.org/2000/svg" xmlns:xlink="http://www.w3.org/1999/xlink" x="0px" y="0px"
	 viewBox="0 0 200 200" style="enable-background:new 0 0 200 200;" xml:space="preserve">
<style type="text/css">
	.st0{fill:#FFFFFF;}
</style>
<g>
	<path class="st0" d="M197.8,20.8c-1.5-1.5-3.2-2.2-5.2-2.2H74.2c-2,0-3.7,0.7-5.2,2.2c-1.5,1.5-2.2,3.2-2.2,5.2v22.2H48.3
		c-2.1,0-4.3,0.5-6.8,1.5s-4.4,2.2-5.8,3.7L12.8,76.3c-1,1-1.9,2.1-2.6,3.5c-0.7,1.3-1.3,2.5-1.6,3.5c-0.4,1.1-0.6,2.5-0.8,4.3
		c-0.2,1.8-0.2,3.2-0.3,4s0,2.3,0,4.4c0,2.1,0,3.4,0,4.1v37c-2,0-3.7,0.7-5.2,2.2s-2.2,3.2-2.2,5.2c0,1.2,0.2,2.2,0.4,3.1
		c0.3,0.9,0.8,1.6,1.6,2.1c0.7,0.5,1.4,1,1.9,1.3c0.5,0.4,1.5,0.6,2.7,0.7c1.3,0.1,2.1,0.2,2.6,0.2c0.4,0,1.5,0,3,0s2.4,0,2.6,0h7.4
		c0,8.2,2.9,15.1,8.7,20.9c5.8,5.8,12.8,8.7,20.9,8.7s15.1-2.9,20.9-8.7c5.8-5.8,8.7-12.8,8.7-20.9H126c0,8.2,2.9,15.1,8.7,20.9
		c5.8,5.8,12.8,8.7,20.9,8.7c8.2,0,15.1-2.9,20.9-8.7c5.8-5.8,8.7-12.8,8.7-20.9c0.2,0,1.1,0,2.6,0c1.5,0,2.5,0,3,0
		c0.4,0,1.3-0.1,2.6-0.2s2.2-0.4,2.7-0.7c0.5-0.3,1.2-0.8,1.9-1.3c0.7-0.5,1.3-1.3,1.6-2.1c0.3-0.9,0.4-1.9,0.4-3.1V26.1
		C200,24,199.2,22.3,197.8,20.8z M62.4,162.3c-2.9,2.9-6.4,4.4-10.4,4.4s-7.5-1.5-10.4-4.4c-2.9-2.9-4.4-6.4-4.4-10.4
		c0-4,1.5-7.5,4.4-10.4c2.9-2.9,6.4-4.4,10.4-4.4s7.5,1.5,10.4,4.4c2.9,2.9,4.4,6.4,4.4,10.4C66.7,155.9,65.3,159.3,62.4,162.3z
		 M66.7,92.6H22.4v-3.5c0-1,0.4-1.9,1.1-2.6L46,64c0.7-0.7,1.5-1.1,2.6-1.1h18.3L66.7,92.6L66.7,92.6z M166,162.3
		c-2.9,2.9-6.4,4.4-10.4,4.4c-4,0-7.5-1.5-10.4-4.4c-2.9-2.9-4.4-6.4-4.4-10.4c0-4,1.5-7.5,4.4-10.4c2.9-2.9,6.4-4.4,10.4-4.4
		c4,0,7.5,1.5,10.4,4.4c2.9,2.9,4.4,6.4,4.4,10.4S168.9,159.3,166,162.3z"/>
</g>
</svg>
