<?xml version="1.0" encoding="utf-8"?>
<!-- Generator: Adobe Illustrator 21.0.0, SVG Export Plug-In . SVG Version: 6.00 Build 0)  -->
<svg version="1.1" id="Calque_1" xmlns="http://www.w3.org/2000/svg" xmlns:xlink="http://www.w3.org/1999/xlink" x="0px" y="0px"
	 viewBox="0 0 76.7 77" style="enable-background:new 0 0 76.7 77;" xml:space="preserve">
<style type="text/css">
	.st0{fill:#FFFFFF;}
</style>
<g>
	<path class="st0" d="M6,77h64.8c4,0,6.9-4,5.5-7.8l-2.7-7.6c-2.9-5.4-7.8-9.4-13.6-11.2l-9-2.7c-2.6-0.8-4.1-3.6-3.2-6.2
		c0.2-0.5,0.5-1,0.8-1.5l5.7-9c2.4-3.7,3.3-8.2,2.5-12.6l-0.6-3.5c-0.8-4.6-3.4-8.8-7.2-11.5c-6.4-4.6-15-4.5-21.3,0.3l0,0
		C24.4,6.2,22,9.9,21.1,14l-0.9,4c-1.1,4.7-0.2,9.5,2.3,13.6l5.4,8.6c0.4,0.4,0.7,0.9,0.8,1.5c0.9,2.6-0.5,5.4-3.2,6.2l-9,2.7
		c-5.9,1.8-10.8,5.8-13.6,11.2l-2.7,7.6C-0.9,73,2,77,6,77z"/>
</g>
</svg>
