<?xml version="1.0" encoding="utf-8"?>
<!-- Generator: Adobe Illustrator 21.0.0, SVG Export Plug-In . SVG Version: 6.00 Build 0)  -->
<svg version="1.1" id="Layer_1" xmlns="http://www.w3.org/2000/svg" xmlns:xlink="http://www.w3.org/1999/xlink" x="0px" y="0px"
	 viewBox="0 0 125 40" style="enable-background:new 0 0 125 40;" xml:space="preserve">
<style type="text/css">
	.st0{fill:#3C58BF;}
	.st1{fill:#293688;}
	.st2{fill:#FFBC00;}
	.st3{fill:#F7981D;}
	.st4{fill:#ED7C00;}
	.st5{fill:#051244;}
</style>
<polygon class="st0" points="45.7,38 52.1,2.2 62,2.2 55.9,38 "/>
<polygon class="st1" points="45.7,38 53.9,2.2 62,2.2 55.9,38 "/>
<path class="st0" d="M91.8,2.6c-2-0.8-5.2-1.6-9.1-1.6c-9.9,0-17.1,5-17.1,12.1c0,5.4,5,8.1,8.9,9.9c4,1.8,5.2,3,5.2,4.6
	c0,2.4-3.2,3.6-6,3.6c-4,0-6.2-0.6-9.5-2l-1.4-0.6l-1.4,8.1c2.4,1,6.8,2,11.3,2c10.5,0,17.5-5,17.5-12.5c0-4.2-2.6-7.4-8.5-9.9
	c-3.6-1.8-5.8-2.8-5.8-4.6c0-1.6,1.8-3.2,5.8-3.2c3.4,0,5.8,0.6,7.5,1.4l1,0.4L91.8,2.6L91.8,2.6z"/>
<path class="st1" d="M91.8,2.6c-2-0.8-5.2-1.6-9.1-1.6c-9.9,0-15.3,5-15.3,12.1c0,5.4,3.2,8.1,7.2,9.9s5.2,3,5.2,4.6
	c0,2.4-3.2,3.6-6,3.6c-4,0-6.2-0.6-9.5-2l-1.4-0.6l-1.4,8.1c2.4,1,6.8,2,11.3,2c10.5,0,17.5-5,17.5-12.5c0-4.2-2.6-7.4-8.5-9.9
	c-3.6-1.8-5.8-2.8-5.8-4.6c0-1.6,1.8-3.2,5.8-3.2c3.4,0,5.8,0.6,7.5,1.4l1,0.4L91.8,2.6L91.8,2.6z"/>
<path class="st0" d="M108.9,2.2c-2.4,0-4.2,0.2-5.2,2.6L88.8,38h10.7l2-6h12.7l1.2,6h9.5l-8.3-35.8C116.6,2.2,108.9,2.2,108.9,2.2z
	 M104.3,26c0.6-1.8,4-10.5,4-10.5s0.8-2.2,1.4-3.6l0.6,3.4c0,0,2,8.9,2.4,10.9h-8.3L104.3,26L104.3,26z"/>
<path class="st1" d="M111.3,2.2c-2.4,0-4.2,0.2-5.2,2.6L88.8,38h10.7l2-6h12.7l1.2,6h9.5l-8.3-35.8C116.6,2.2,111.3,2.2,111.3,2.2z
	 M104.3,26c0.8-2,4-10.5,4-10.5s0.8-2.2,1.4-3.6l0.6,3.4c0,0,2,8.9,2.4,10.9h-8.3L104.3,26L104.3,26z"/>
<path class="st0" d="M27.4,27.2l-1-5.2c-1.8-6-7.5-12.5-13.9-15.7l8.9,31.8h10.7L48.2,2.3H37.6L27.4,27.2z"/>
<path class="st1" d="M27.4,27.2l-1-5.2c-1.8-6-7.5-12.5-13.9-15.7l8.9,31.8h10.7L48.2,2.3h-8.7L27.4,27.2z"/>
<path class="st2" d="M-0.2,2.2l1.8,0.4c12.7,3,21.5,10.5,24.8,19.5L22.8,5.2c-0.6-2.4-2.4-3-4.6-3C18.2,2.2-0.2,2.2-0.2,2.2z"/>
<path class="st3" d="M-0.2,2.2L-0.2,2.2C12.5,5.2,23,12.9,26.4,22L23,7.8C22.4,5.4,20.4,4,18.2,4L-0.2,2.2z"/>
<path class="st4" d="M-0.2,2.2L-0.2,2.2C12.5,5.2,23,12.9,26.4,22L24,14.2c-0.6-2.4-1.4-4.8-4.2-5.8L-0.2,2.2z"/>
<g>
	<path class="st5" d="M37.4,26l-6.8-6.8l-3.2,7.5l-0.8-5c-1.8-6-7.5-12.5-13.9-15.7l8.9,31.8h10.7L37.4,26z"/>
	<polygon class="st5" points="55.9,38 47.3,29.2 45.7,38 	"/>
	<path class="st5" d="M78.7,25.6L78.7,25.6c0.8,0.8,1.2,1.4,1,2.2c0,2.4-3.2,3.6-6,3.6c-4,0-6.2-0.6-9.5-2l-1.4-0.6L61.4,37
		c2.4,1,6.8,2,11.3,2c6.4,0,11.5-1.8,14.5-5L78.7,25.6z"/>
	<path class="st5" d="M90.2,38h9.3l2-6h12.7l1.2,6h9.5l-3.3-14.5L109.7,12l0.6,3.2c0,0,2,8.9,2.4,10.9h-8.3c0.8-2,4-10.5,4-10.5
		s0.8-2.2,1.4-3.6"/>
</g>
</svg>
